<svg xmlns="http://www.w3.org/2000/svg" width="880" height="250" viewBox="0 0 880 250" role="img" aria-labelledby="t" fill="none"><title id="t">GitHub activity</title><desc id="d">689 contributions across 21 repositories in 10 languages since 2024. By year: 2024 52, 2025 246, 2026 391.</desc><rect x="32.00" y="26.00" width="18" height="3" rx="1.5" fill="#C9252D"/><text x="58.00" y="34.00" font-family='-apple-system,BlinkMacSystemFont,"Segoe UI",Helvetica,Arial,"Apple Color Emoji","Segoe UI Emoji",sans-serif' font-size="11" font-weight="600" fill="#59636e" letter-spacing="1.3">ACTIVITY</text><line x1="32.00" y1="48.5" x2="848.00" y2="48.5" stroke="#d1d9e0" stroke-width="1"/><text x="848.00" y="34.00" font-family='-apple-system,BlinkMacSystemFont,"Segoe UI",Helvetica,Arial,"Apple Color Emoji","Segoe UI Emoji",sans-serif' font-size="11" font-weight="400" fill="#818b98" text-anchor="end">updated 2026-09-26</text><g transform="translate(32.00,98.00)"><path d="M10.48 0.31Q8.83 0.31 7.24 -0.26Q5.66 -0.83 4.38 -2.13Q3.11 -3.44 2.36 -5.6Q1.61 -7.77 1.61 -10.97Q1.61 -13.97 2.24 -16.3Q2.88 -18.64 4.07 -20.27Q5.27 -21.89 6.95 -22.74Q8.64 -23.59 10.73 -23.59Q12.91 -23.59 14.6 -22.73Q16.3 -21.88 17.34 -20.39Q18.39 -18.91 18.64 -17.02H14.55Q14.22 -18.36 13.23 -19.17Q12.25 -19.98 10.73 -19.98Q9.11 -19.98 7.98 -19.03Q6.84 -18.08 6.26 -16.3Q5.67 -14.53 5.67 -12.06H5.84Q6.41 -13.08 7.29 -13.8Q8.17 -14.52 9.29 -14.9Q10.41 -15.28 11.64 -15.28Q13.69 -15.28 15.32 -14.3Q16.95 -13.33 17.91 -11.62Q18.86 -9.91 18.86 -7.69Q18.86 -5.41 17.81 -3.59Q16.77 -1.78 14.88 -0.73Q13 0.31 10.48 0.31ZM10.47 -3.08Q11.7 -3.08 12.69 -3.68Q13.67 -4.28 14.24 -5.31Q14.81 -6.34 14.81 -7.61Q14.81 -8.86 14.26 -9.88Q13.7 -10.89 12.73 -11.48Q11.77 -12.08 10.52 -12.08Q9.59 -12.08 8.8 -11.73Q8 -11.38 7.4 -10.75Q6.8 -10.12 6.47 -9.31Q6.14 -8.5 6.14 -7.59Q6.14 -6.38 6.7 -5.34Q7.27 -4.31 8.25 -3.7Q9.23 -3.08 10.47 -3.08Z M29.9 0.31Q27.39 0.31 25.43 -0.54Q23.48 -1.39 22.38 -2.87Q21.28 -4.34 21.28 -6.23Q21.28 -7.69 21.92 -8.92Q22.56 -10.16 23.66 -10.98Q24.76 -11.81 26.14 -12.05V-12.19Q24.34 -12.59 23.23 -14.04Q22.12 -15.48 22.12 -17.36Q22.12 -19.16 23.13 -20.56Q24.14 -21.97 25.9 -22.78Q27.65 -23.59 29.9 -23.59Q32.14 -23.59 33.9 -22.78Q35.65 -21.97 36.67 -20.56Q37.68 -19.16 37.68 -17.36Q37.68 -15.48 36.57 -14.04Q35.45 -12.59 33.68 -12.19V-12.05Q35.04 -11.81 36.15 -10.98Q37.25 -10.16 37.9 -8.92Q38.54 -7.69 38.54 -6.23Q38.54 -4.34 37.43 -2.87Q36.33 -1.39 34.37 -0.54Q32.42 0.31 29.9 0.31ZM29.9 -2.91Q31.22 -2.91 32.18 -3.36Q33.15 -3.81 33.69 -4.63Q34.23 -5.45 34.23 -6.53Q34.23 -7.66 33.67 -8.51Q33.11 -9.36 32.13 -9.86Q31.15 -10.36 29.9 -10.36Q28.65 -10.36 27.67 -9.87Q26.68 -9.38 26.12 -8.52Q25.56 -7.66 25.56 -6.53Q25.56 -5.45 26.09 -4.64Q26.62 -3.83 27.61 -3.37Q28.59 -2.91 29.9 -2.91ZM29.9 -13.52Q30.98 -13.52 31.81 -13.95Q32.64 -14.39 33.12 -15.16Q33.61 -15.94 33.61 -16.95Q33.61 -17.97 33.14 -18.72Q32.67 -19.47 31.83 -19.89Q31 -20.31 29.9 -20.31Q28.79 -20.31 27.96 -19.89Q27.12 -19.47 26.66 -18.72Q26.2 -17.97 26.2 -16.95Q26.2 -15.94 26.67 -15.16Q27.14 -14.39 27.98 -13.95Q28.82 -13.52 29.9 -13.52Z M49.12 0.33Q46.93 0.33 45.24 -0.53Q43.54 -1.39 42.49 -2.89Q41.45 -4.39 41.18 -6.3H45.31Q45.62 -4.95 46.6 -4.12Q47.57 -3.28 49.12 -3.28Q50.74 -3.28 51.87 -4.23Q52.99 -5.19 53.58 -6.97Q54.17 -8.75 54.17 -11.23H54.01Q53.45 -10.23 52.56 -9.52Q51.68 -8.8 50.57 -8.41Q49.46 -8.02 48.2 -8.02Q46.17 -8.02 44.52 -8.99Q42.87 -9.97 41.92 -11.69Q40.96 -13.41 40.96 -15.59Q40.96 -17.89 42.02 -19.72Q43.09 -21.55 44.98 -22.59Q46.87 -23.64 49.38 -23.61Q51.04 -23.61 52.61 -23.03Q54.18 -22.45 55.45 -21.16Q56.71 -19.86 57.46 -17.7Q58.21 -15.53 58.21 -12.33Q58.21 -9.33 57.58 -6.98Q56.95 -4.64 55.75 -3.01Q54.56 -1.38 52.88 -0.52Q51.2 0.33 49.12 0.33ZM49.31 -11.22Q50.24 -11.22 51.05 -11.58Q51.85 -11.94 52.45 -12.56Q53.04 -13.19 53.38 -14Q53.71 -14.81 53.71 -15.73Q53.71 -16.94 53.15 -17.95Q52.59 -18.97 51.61 -19.59Q50.63 -20.2 49.37 -20.2Q48.13 -20.2 47.16 -19.6Q46.18 -19 45.6 -17.98Q45.02 -16.95 45.02 -15.69Q45.02 -14.44 45.59 -13.42Q46.15 -12.41 47.11 -11.81Q48.07 -11.22 49.31 -11.22Z" fill="#1f2328"/></g><text x="32.00" y="118.00" font-family='-apple-system,BlinkMacSystemFont,"Segoe UI",Helvetica,Arial,"Apple Color Emoji","Segoe UI Emoji",sans-serif' font-size="12" font-weight="400" fill="#59636e">contributions</text><g transform="translate(236.00,98.00)"><path d="M2.09 0V-3L10.17 -10.95Q11.31 -12.12 12.09 -13.03Q12.86 -13.94 13.26 -14.79Q13.66 -15.64 13.66 -16.64Q13.66 -17.73 13.15 -18.53Q12.64 -19.33 11.77 -19.76Q10.91 -20.19 9.8 -20.19Q8.62 -20.19 7.76 -19.72Q6.89 -19.25 6.42 -18.38Q5.95 -17.52 5.95 -16.31H1.97Q1.97 -18.52 2.98 -20.16Q3.98 -21.8 5.76 -22.7Q7.53 -23.59 9.84 -23.59Q12.17 -23.59 13.94 -22.72Q15.7 -21.84 16.69 -20.32Q17.67 -18.8 17.67 -16.84Q17.67 -15.55 17.19 -14.31Q16.7 -13.08 15.45 -11.52Q14.2 -9.97 11.92 -7.78L7.88 -3.66V-3.48H18.02V0Z M30.34 -23.28V0H26.2V-19.56H26.04L20.61 -15.66V-19.62L25.72 -23.28Z" fill="#1f2328"/></g><text x="236.00" y="118.00" font-family='-apple-system,BlinkMacSystemFont,"Segoe UI",Helvetica,Arial,"Apple Color Emoji","Segoe UI Emoji",sans-serif' font-size="12" font-weight="400" fill="#59636e">repositories</text><line x1="214.5" y1="68.00" x2="214.5" y2="124.00" stroke="#d1d9e0" stroke-width="1" opacity="0.55"/><g transform="translate(440.00,98.00)"><path d="M11.2 -23.28V0H7.06V-19.56H6.91L1.47 -15.66V-19.62L6.58 -23.28Z M23.28 0.31Q20.47 0.31 18.47 -1.1Q16.47 -2.52 15.4 -5.18Q14.34 -7.84 14.34 -11.62Q14.34 -15.41 15.41 -18.08Q16.48 -20.75 18.47 -22.17Q20.47 -23.59 23.28 -23.59Q26.11 -23.59 28.11 -22.17Q30.11 -20.75 31.17 -18.08Q32.23 -15.41 32.23 -11.62Q32.23 -7.84 31.18 -5.18Q30.12 -2.52 28.12 -1.1Q26.12 0.31 23.28 0.31ZM23.29 -3.19Q24.81 -3.19 25.86 -4.18Q26.92 -5.17 27.47 -7.05Q28.03 -8.94 28.03 -11.62Q28.03 -14.33 27.47 -16.22Q26.92 -18.11 25.86 -19.11Q24.81 -20.11 23.29 -20.11Q21.76 -20.11 20.71 -19.11Q19.65 -18.11 19.1 -16.22Q18.54 -14.33 18.54 -11.62Q18.54 -8.94 19.09 -7.05Q19.64 -5.17 20.7 -4.18Q21.76 -3.19 23.29 -3.19Z" fill="#1f2328"/></g><text x="440.00" y="118.00" font-family='-apple-system,BlinkMacSystemFont,"Segoe UI",Helvetica,Arial,"Apple Color Emoji","Segoe UI Emoji",sans-serif' font-size="12" font-weight="400" fill="#59636e">languages</text><line x1="418.5" y1="68.00" x2="418.5" y2="124.00" stroke="#d1d9e0" stroke-width="1" opacity="0.55"/><g transform="translate(644.00,98.00)"><path d="M2.09 0V-3L10.17 -10.95Q11.31 -12.12 12.09 -13.03Q12.86 -13.94 13.26 -14.79Q13.66 -15.64 13.66 -16.64Q13.66 -17.73 13.15 -18.53Q12.64 -19.33 11.77 -19.76Q10.91 -20.19 9.8 -20.19Q8.62 -20.19 7.76 -19.72Q6.89 -19.25 6.42 -18.38Q5.95 -17.52 5.95 -16.31H1.97Q1.97 -18.52 2.98 -20.16Q3.98 -21.8 5.76 -22.7Q7.53 -23.59 9.84 -23.59Q12.17 -23.59 13.94 -22.72Q15.7 -21.84 16.69 -20.32Q17.67 -18.8 17.67 -16.84Q17.67 -15.55 17.19 -14.31Q16.7 -13.08 15.45 -11.52Q14.2 -9.97 11.92 -7.78L7.88 -3.66V-3.48H18.02V0Z M29.68 0.31Q26.87 0.31 24.87 -1.1Q22.87 -2.52 21.81 -5.18Q20.75 -7.84 20.75 -11.62Q20.75 -15.41 21.82 -18.08Q22.89 -20.75 24.88 -22.17Q26.87 -23.59 29.68 -23.59Q32.51 -23.59 34.51 -22.17Q36.51 -20.75 37.58 -18.08Q38.64 -15.41 38.64 -11.62Q38.64 -7.84 37.58 -5.18Q36.53 -2.52 34.53 -1.1Q32.53 0.31 29.68 0.31ZM29.7 -3.19Q31.22 -3.19 32.27 -4.18Q33.33 -5.17 33.88 -7.05Q34.43 -8.94 34.43 -11.62Q34.43 -14.33 33.88 -16.22Q33.33 -18.11 32.27 -19.11Q31.22 -20.11 29.7 -20.11Q28.17 -20.11 27.11 -19.11Q26.06 -18.11 25.5 -16.22Q24.95 -14.33 24.95 -11.62Q24.95 -8.94 25.5 -7.05Q26.04 -5.17 27.11 -4.18Q28.17 -3.19 29.7 -3.19Z M41.54 0V-3L49.62 -10.95Q50.76 -12.12 51.53 -13.03Q52.31 -13.94 52.7 -14.79Q53.1 -15.64 53.1 -16.64Q53.1 -17.73 52.6 -18.53Q52.09 -19.33 51.22 -19.76Q50.35 -20.19 49.24 -20.19Q48.07 -20.19 47.2 -19.72Q46.34 -19.25 45.87 -18.38Q45.4 -17.52 45.4 -16.31H41.42Q41.42 -18.52 42.42 -20.16Q43.43 -21.8 45.2 -22.7Q46.98 -23.59 49.29 -23.59Q51.62 -23.59 53.38 -22.72Q55.15 -21.84 56.13 -20.32Q57.12 -18.8 57.12 -16.84Q57.12 -15.55 56.63 -14.31Q56.15 -13.08 54.9 -11.52Q53.65 -9.97 51.37 -7.78L47.32 -3.66V-3.48H57.46V0Z M60.26 -4.33V-7.66L70.15 -23.28H72.9V-18.53H71.22L64.52 -7.95V-7.77H78.33V-4.33ZM71.33 0V-5.33L71.41 -6.84V-23.28H75.33V0Z" fill="#1f2328"/></g><text x="644.00" y="118.00" font-family='-apple-system,BlinkMacSystemFont,"Segoe UI",Helvetica,Arial,"Apple Color Emoji","Segoe UI Emoji",sans-serif' font-size="12" font-weight="400" fill="#59636e">active since</text><line x1="622.5" y1="68.00" x2="622.5" y2="124.00" stroke="#d1d9e0" stroke-width="1" opacity="0.55"/><line x1="32.00" y1="136.5" x2="848.00" y2="136.5" stroke="#d1d9e0" stroke-width="1" opacity="0.6"/><rect x="32.0" y="170" width="257.3" height="6" rx="3" fill="#d1d9e0" opacity="0.55"/><rect x="32.0" y="170" width="34.2" height="6" rx="3" fill="#C9252D"/><text x="32.00" y="163.00" font-family='-apple-system,BlinkMacSystemFont,"Segoe UI",Helvetica,Arial,"Apple Color Emoji","Segoe UI Emoji",sans-serif' font-size="11" font-weight="600" fill="#59636e">2024</text><text x="289.33" y="163.00" font-family='-apple-system,BlinkMacSystemFont,"Segoe UI",Helvetica,Arial,"Apple Color Emoji","Segoe UI Emoji",sans-serif' font-size="11" font-weight="600" fill="#1f2328" text-anchor="end">52</text><rect x="311.3" y="170" width="257.3" height="6" rx="3" fill="#d1d9e0" opacity="0.55"/><rect x="311.3" y="170" width="161.9" height="6" rx="3" fill="#C9252D"/><text x="311.33" y="163.00" font-family='-apple-system,BlinkMacSystemFont,"Segoe UI",Helvetica,Arial,"Apple Color Emoji","Segoe UI Emoji",sans-serif' font-size="11" font-weight="600" fill="#59636e">2025</text><text x="568.67" y="163.00" font-family='-apple-system,BlinkMacSystemFont,"Segoe UI",Helvetica,Arial,"Apple Color Emoji","Segoe UI Emoji",sans-serif' font-size="11" font-weight="600" fill="#1f2328" text-anchor="end">246</text><rect x="590.7" y="170" width="257.3" height="6" rx="3" fill="#d1d9e0" opacity="0.55"/><rect x="590.7" y="170" width="257.3" height="6" rx="3" fill="#C9252D"/><text x="590.67" y="163.00" font-family='-apple-system,BlinkMacSystemFont,"Segoe UI",Helvetica,Arial,"Apple Color Emoji","Segoe UI Emoji",sans-serif' font-size="11" font-weight="600" fill="#59636e">2026</text><text x="848.00" y="163.00" font-family='-apple-system,BlinkMacSystemFont,"Segoe UI",Helvetica,Arial,"Apple Color Emoji","Segoe UI Emoji",sans-serif' font-size="11" font-weight="600" fill="#1f2328" text-anchor="end">391</text><text x="32.00" y="190.00" font-family='-apple-system,BlinkMacSystemFont,"Segoe UI",Helvetica,Arial,"Apple Color Emoji","Segoe UI Emoji",sans-serif' font-size="10" font-weight="600" fill="#818b98" letter-spacing="1.2">LAST 53 WEEKS</text><text x="848.00" y="190.00" font-family='-apple-system,BlinkMacSystemFont,"Segoe UI",Helvetica,Arial,"Apple Color Emoji","Segoe UI Emoji",sans-serif' font-size="10" font-weight="400" fill="#818b98" text-anchor="end">26 active</text><rect x="32.00" y="229.00" width="12.45" height="3" rx="1.5" fill="#d1d9e0" opacity="0.7"/><rect x="47.45" y="229.00" width="12.45" height="3" rx="1.5" fill="#d1d9e0" opacity="0.7"/><rect x="62.91" y="229.00" width="12.45" height="3" rx="1.5" fill="#d1d9e0" opacity="0.7"/><rect x="78.36" y="229.00" width="12.45" height="3" rx="1.5" fill="#d1d9e0" opacity="0.7"/><rect x="93.81" y="229.00" width="12.45" height="3" rx="1.5" fill="#d1d9e0" opacity="0.7"/><rect x="109.26" y="229.00" width="12.45" height="3" rx="1.5" fill="#d1d9e0" opacity="0.7"/><rect x="124.72" y="229.00" width="12.45" height="3" rx="1.5" fill="#d1d9e0" opacity="0.7"/><rect x="140.17" y="229.00" width="12.45" height="3" rx="1.5" fill="#d1d9e0" opacity="0.7"/><rect x="155.62" y="229.00" width="12.45" height="3" rx="1.5" fill="#d1d9e0" opacity="0.7"/><rect x="171.08" y="224.62" width="12.45" height="7.38" rx="1.5" fill="#C9252D" opacity="0.54"/><rect x="186.53" y="224.62" width="12.45" height="7.38" rx="1.5" fill="#C9252D" opacity="0.54"/><rect x="201.98" y="229.00" width="12.45" height="3" rx="1.5" fill="#d1d9e0" opacity="0.7"/><rect x="217.43" y="229.00" width="12.45" height="3" rx="1.5" fill="#d1d9e0" opacity="0.7"/><rect x="232.89" y="229.00" width="12.45" height="3" rx="1.5" fill="#d1d9e0" opacity="0.7"/><rect x="248.34" y="229.00" width="12.45" height="3" rx="1.5" fill="#d1d9e0" opacity="0.7"/><rect x="263.79" y="229.00" width="12.45" height="3" rx="1.5" fill="#d1d9e0" opacity="0.7"/><rect x="279.25" y="229.00" width="12.45" height="3" rx="1.5" fill="#d1d9e0" opacity="0.7"/><rect x="294.70" y="227.08" width="12.45" height="4.92" rx="1.5" fill="#C9252D" opacity="0.49"/><rect x="310.15" y="217.23" width="12.45" height="14.77" rx="1.5" fill="#C9252D" opacity="0.68"/><rect x="325.60" y="217.23" width="12.45" height="14.77" rx="1.5" fill="#C9252D" opacity="0.68"/><rect x="341.06" y="214.77" width="12.45" height="17.23" rx="1.5" fill="#C9252D" opacity="0.72"/><rect x="356.51" y="229.00" width="12.45" height="3.00" rx="1.5" fill="#C9252D" opacity="0.45"/><rect x="371.96" y="219.69" width="12.45" height="12.31" rx="1.5" fill="#C9252D" opacity="0.63"/><rect x="387.42" y="219.69" width="12.45" height="12.31" rx="1.5" fill="#C9252D" opacity="0.63"/><rect x="402.87" y="229.00" width="12.45" height="3.00" rx="1.5" fill="#C9252D" opacity="0.45"/><rect x="418.32" y="217.23" width="12.45" height="14.77" rx="1.5" fill="#C9252D" opacity="0.68"/><rect x="433.77" y="227.08" width="12.45" height="4.92" rx="1.5" fill="#C9252D" opacity="0.49"/><rect x="449.23" y="227.08" width="12.45" height="4.92" rx="1.5" fill="#C9252D" opacity="0.49"/><rect x="464.68" y="229.00" width="12.45" height="3" rx="1.5" fill="#d1d9e0" opacity="0.7"/><rect x="480.13" y="219.69" width="12.45" height="12.31" rx="1.5" fill="#C9252D" opacity="0.63"/><rect x="495.58" y="224.62" width="12.45" height="7.38" rx="1.5" fill="#C9252D" opacity="0.54"/><rect x="511.04" y="229.00" width="12.45" height="3" rx="1.5" fill="#d1d9e0" opacity="0.7"/><rect x="526.49" y="222.15" width="12.45" height="9.85" rx="1.5" fill="#C9252D" opacity="0.58"/><rect x="541.94" y="229.00" width="12.45" height="3.00" rx="1.5" fill="#C9252D" opacity="0.45"/><rect x="557.40" y="229.00" width="12.45" height="3" rx="1.5" fill="#d1d9e0" opacity="0.7"/><rect x="572.85" y="229.00" width="12.45" height="3" rx="1.5" fill="#d1d9e0" opacity="0.7"/><rect x="588.30" y="227.08" width="12.45" height="4.92" rx="1.5" fill="#C9252D" opacity="0.49"/><rect x="603.75" y="229.00" width="12.45" height="3" rx="1.5" fill="#d1d9e0" opacity="0.7"/><rect x="619.21" y="229.00" width="12.45" height="3" rx="1.5" fill="#d1d9e0" opacity="0.7"/><rect x="634.66" y="229.00" width="12.45" height="3" rx="1.5" fill="#d1d9e0" opacity="0.7"/><rect x="650.11" y="229.00" width="12.45" height="3" rx="1.5" fill="#d1d9e0" opacity="0.7"/><rect x="665.57" y="229.00" width="12.45" height="3" rx="1.5" fill="#d1d9e0" opacity="0.7"/><rect x="681.02" y="214.77" width="12.45" height="17.23" rx="1.5" fill="#C9252D" opacity="0.72"/><rect x="696.47" y="224.62" width="12.45" height="7.38" rx="1.5" fill="#C9252D" opacity="0.54"/><rect x="711.92" y="222.15" width="12.45" height="9.85" rx="1.5" fill="#C9252D" opacity="0.58"/><rect x="727.38" y="227.08" width="12.45" height="4.92" rx="1.5" fill="#C9252D" opacity="0.49"/><rect x="742.83" y="229.00" width="12.45" height="3" rx="1.5" fill="#d1d9e0" opacity="0.7"/><rect x="758.28" y="229.00" width="12.45" height="3" rx="1.5" fill="#d1d9e0" opacity="0.7"/><rect x="773.74" y="229.00" width="12.45" height="3" rx="1.5" fill="#d1d9e0" opacity="0.7"/><rect x="789.19" y="222.15" width="12.45" height="9.85" rx="1.5" fill="#C9252D" opacity="0.58"/><rect x="804.64" y="222.15" width="12.45" height="9.85" rx="1.5" fill="#C9252D" opacity="0.58"/><rect x="820.09" y="200.00" width="12.45" height="32.00" rx="1.5" fill="#C9252D" opacity="1.00"/><rect x="835.55" y="207.38" width="12.45" height="24.62" rx="1.5" fill="#C9252D" opacity="0.86"/></svg>